<?xml version="1.0" encoding="UTF-8" standalone="no"?>
<!DOCTYPE svg PUBLIC "-//W3C//DTD SVG 1.1//EN"
 "http://www.w3.org/Graphics/SVG/1.1/DTD/svg11.dtd">
<!-- Generated by graphviz version 2.26.3 (20100126.1600)
 -->
<!-- Title: G Pages: 1 -->
<svg width="450pt" height="908pt"
 viewBox="0.00 0.00 450.00 908.00" xmlns="http://www.w3.org/2000/svg" xmlns:xlink="http://www.w3.org/1999/xlink">
<g id="graph1" class="graph" transform="scale(1 1) rotate(0) translate(4 904)">
<title>G</title>
<polygon fill="white" stroke="white" points="-4,5 -4,-904 447,-904 447,5 -4,5"/>
<!-- 0 -->
<g id="node1" class="node"><title>0</title>
<ellipse fill="none" stroke="black" cx="129" cy="-882" rx="36.8288" ry="18"/>
<text text-anchor="middle" x="129" y="-877.9" font-family="Times Roman,serif" font-size="14.00">1111</text>
</g>
<!-- 1 -->
<g id="node2" class="node"><title>1</title>
<ellipse fill="none" stroke="black" cx="129" cy="-810" rx="36.8288" ry="18"/>
<text text-anchor="middle" x="129" y="-805.9" font-family="Times Roman,serif" font-size="14.00">1112</text>
</g>
<!-- 0&#45;&gt;1 -->
<g id="edge2" class="edge"><title>0&#45;&gt;1</title>
<path fill="none" stroke="black" d="M129,-863.831C129,-856.131 129,-846.974 129,-838.417"/>
<polygon fill="black" stroke="black" points="132.5,-838.413 129,-828.413 125.5,-838.413 132.5,-838.413"/>
</g>
<!-- 2 -->
<g id="node3" class="node"><title>2</title>
<ellipse fill="none" stroke="black" cx="83" cy="-738" rx="36.8288" ry="18"/>
<text text-anchor="middle" x="83" y="-733.9" font-family="Times Roman,serif" font-size="14.00">1113</text>
</g>
<!-- 1&#45;&gt;2 -->
<g id="edge4" class="edge"><title>1&#45;&gt;2</title>
<path fill="none" stroke="black" d="M117.865,-792.571C112.384,-783.992 105.665,-773.476 99.594,-763.973"/>
<polygon fill="black" stroke="black" points="102.366,-761.811 94.0328,-755.269 96.4673,-765.58 102.366,-761.811"/>
</g>
<!-- 4 -->
<g id="node4" class="node"><title>4</title>
<ellipse fill="none" stroke="black" cx="175" cy="-738" rx="36.8288" ry="18"/>
<text text-anchor="middle" x="175" y="-733.9" font-family="Times Roman,serif" font-size="14.00">1122</text>
</g>
<!-- 1&#45;&gt;4 -->
<g id="edge6" class="edge"><title>1&#45;&gt;4</title>
<path fill="none" stroke="black" d="M140.135,-792.571C145.616,-783.992 152.335,-773.476 158.406,-763.973"/>
<polygon fill="black" stroke="black" points="161.533,-765.58 163.967,-755.269 155.634,-761.811 161.533,-765.58"/>
</g>
<!-- 3 -->
<g id="node5" class="node"><title>3</title>
<ellipse fill="none" stroke="black" cx="37" cy="-666" rx="36.8288" ry="18"/>
<text text-anchor="middle" x="37" y="-661.9" font-family="Times Roman,serif" font-size="14.00">1114</text>
</g>
<!-- 2&#45;&gt;3 -->
<g id="edge8" class="edge"><title>2&#45;&gt;3</title>
<path fill="none" stroke="black" d="M71.8647,-720.571C66.3839,-711.992 59.6654,-701.476 53.594,-691.973"/>
<polygon fill="black" stroke="black" points="56.3662,-689.811 48.0328,-683.269 50.4673,-693.58 56.3662,-689.811"/>
</g>
<!-- 5 -->
<g id="node6" class="node"><title>5</title>
<ellipse fill="none" stroke="black" cx="129" cy="-666" rx="36.8288" ry="18"/>
<text text-anchor="middle" x="129" y="-661.9" font-family="Times Roman,serif" font-size="14.00">1123</text>
</g>
<!-- 2&#45;&gt;5 -->
<g id="edge10" class="edge"><title>2&#45;&gt;5</title>
<path fill="none" stroke="black" d="M94.1353,-720.571C99.6161,-711.992 106.335,-701.476 112.406,-691.973"/>
<polygon fill="black" stroke="black" points="115.533,-693.58 117.967,-683.269 109.634,-689.811 115.533,-693.58"/>
</g>
<!-- 4&#45;&gt;5 -->
<g id="edge14" class="edge"><title>4&#45;&gt;5</title>
<path fill="none" stroke="black" d="M163.865,-720.571C158.384,-711.992 151.665,-701.476 145.594,-691.973"/>
<polygon fill="black" stroke="black" points="148.366,-689.811 140.033,-683.269 142.467,-693.58 148.366,-689.811"/>
</g>
<!-- 10 -->
<g id="node8" class="node"><title>10</title>
<ellipse fill="none" stroke="black" cx="221" cy="-666" rx="36.8288" ry="18"/>
<text text-anchor="middle" x="221" y="-661.9" font-family="Times Roman,serif" font-size="14.00">1222</text>
</g>
<!-- 4&#45;&gt;10 -->
<g id="edge16" class="edge"><title>4&#45;&gt;10</title>
<path fill="none" stroke="black" d="M186.135,-720.571C191.616,-711.992 198.335,-701.476 204.406,-691.973"/>
<polygon fill="black" stroke="black" points="207.533,-693.58 209.967,-683.269 201.634,-689.811 207.533,-693.58"/>
</g>
<!-- 6 -->
<g id="node7" class="node"><title>6</title>
<ellipse fill="none" stroke="black" cx="37" cy="-594" rx="36.8288" ry="18"/>
<text text-anchor="middle" x="37" y="-589.9" font-family="Times Roman,serif" font-size="14.00">1124</text>
</g>
<!-- 3&#45;&gt;6 -->
<g id="edge12" class="edge"><title>3&#45;&gt;6</title>
<path fill="none" stroke="black" d="M37,-647.831C37,-640.131 37,-630.974 37,-622.417"/>
<polygon fill="black" stroke="black" points="40.5001,-622.413 37,-612.413 33.5001,-622.413 40.5001,-622.413"/>
</g>
<!-- 5&#45;&gt;6 -->
<g id="edge18" class="edge"><title>5&#45;&gt;6</title>
<path fill="none" stroke="black" d="M109.037,-650.377C96.0493,-640.212 78.9319,-626.816 64.642,-615.633"/>
<polygon fill="black" stroke="black" points="66.6398,-612.752 56.6076,-609.345 62.3256,-618.264 66.6398,-612.752"/>
</g>
<!-- 7 -->
<g id="node9" class="node"><title>7</title>
<ellipse fill="none" stroke="black" cx="129" cy="-594" rx="36.8288" ry="18"/>
<text text-anchor="middle" x="129" y="-589.9" font-family="Times Roman,serif" font-size="14.00">1133</text>
</g>
<!-- 5&#45;&gt;7 -->
<g id="edge20" class="edge"><title>5&#45;&gt;7</title>
<path fill="none" stroke="black" d="M129,-647.831C129,-640.131 129,-630.974 129,-622.417"/>
<polygon fill="black" stroke="black" points="132.5,-622.413 129,-612.413 125.5,-622.413 132.5,-622.413"/>
</g>
<!-- 11 -->
<g id="node10" class="node"><title>11</title>
<ellipse fill="none" stroke="black" cx="221" cy="-594" rx="36.8288" ry="18"/>
<text text-anchor="middle" x="221" y="-589.9" font-family="Times Roman,serif" font-size="14.00">1223</text>
</g>
<!-- 5&#45;&gt;11 -->
<g id="edge22" class="edge"><title>5&#45;&gt;11</title>
<path fill="none" stroke="black" d="M148.963,-650.377C161.951,-640.212 179.068,-626.816 193.358,-615.633"/>
<polygon fill="black" stroke="black" points="195.674,-618.264 201.392,-609.345 191.36,-612.752 195.674,-618.264"/>
</g>
<!-- 8 -->
<g id="node11" class="node"><title>8</title>
<ellipse fill="none" stroke="black" cx="37" cy="-522" rx="36.8288" ry="18"/>
<text text-anchor="middle" x="37" y="-517.9" font-family="Times Roman,serif" font-size="14.00">1134</text>
</g>
<!-- 6&#45;&gt;8 -->
<g id="edge24" class="edge"><title>6&#45;&gt;8</title>
<path fill="none" stroke="black" d="M37,-575.831C37,-568.131 37,-558.974 37,-550.417"/>
<polygon fill="black" stroke="black" points="40.5001,-550.413 37,-540.413 33.5001,-550.413 40.5001,-550.413"/>
</g>
<!-- 12 -->
<g id="node12" class="node"><title>12</title>
<ellipse fill="none" stroke="black" cx="129" cy="-522" rx="36.8288" ry="18"/>
<text text-anchor="middle" x="129" y="-517.9" font-family="Times Roman,serif" font-size="14.00">1224</text>
</g>
<!-- 6&#45;&gt;12 -->
<g id="edge26" class="edge"><title>6&#45;&gt;12</title>
<path fill="none" stroke="black" d="M56.9626,-578.377C69.9507,-568.212 87.0681,-554.816 101.358,-543.633"/>
<polygon fill="black" stroke="black" points="103.674,-546.264 109.392,-537.345 99.3602,-540.752 103.674,-546.264"/>
</g>
<!-- 10&#45;&gt;11 -->
<g id="edge38" class="edge"><title>10&#45;&gt;11</title>
<path fill="none" stroke="black" d="M221,-647.831C221,-640.131 221,-630.974 221,-622.417"/>
<polygon fill="black" stroke="black" points="224.5,-622.413 221,-612.413 217.5,-622.413 224.5,-622.413"/>
</g>
<!-- 20 -->
<g id="node17" class="node"><title>20</title>
<ellipse fill="none" stroke="black" cx="313" cy="-594" rx="36.8288" ry="18"/>
<text text-anchor="middle" x="313" y="-589.9" font-family="Times Roman,serif" font-size="14.00">2222</text>
</g>
<!-- 10&#45;&gt;20 -->
<g id="edge40" class="edge"><title>10&#45;&gt;20</title>
<path fill="none" stroke="black" d="M240.963,-650.377C253.951,-640.212 271.068,-626.816 285.358,-615.633"/>
<polygon fill="black" stroke="black" points="287.674,-618.264 293.392,-609.345 283.36,-612.752 287.674,-618.264"/>
</g>
<!-- 7&#45;&gt;8 -->
<g id="edge28" class="edge"><title>7&#45;&gt;8</title>
<path fill="none" stroke="black" d="M109.037,-578.377C96.0493,-568.212 78.9319,-554.816 64.642,-543.633"/>
<polygon fill="black" stroke="black" points="66.6398,-540.752 56.6076,-537.345 62.3256,-546.264 66.6398,-540.752"/>
</g>
<!-- 13 -->
<g id="node13" class="node"><title>13</title>
<ellipse fill="none" stroke="black" cx="221" cy="-522" rx="36.8288" ry="18"/>
<text text-anchor="middle" x="221" y="-517.9" font-family="Times Roman,serif" font-size="14.00">1233</text>
</g>
<!-- 7&#45;&gt;13 -->
<g id="edge30" class="edge"><title>7&#45;&gt;13</title>
<path fill="none" stroke="black" d="M148.963,-578.377C161.951,-568.212 179.068,-554.816 193.358,-543.633"/>
<polygon fill="black" stroke="black" points="195.674,-546.264 201.392,-537.345 191.36,-540.752 195.674,-546.264"/>
</g>
<!-- 11&#45;&gt;12 -->
<g id="edge42" class="edge"><title>11&#45;&gt;12</title>
<path fill="none" stroke="black" d="M201.037,-578.377C188.049,-568.212 170.932,-554.816 156.642,-543.633"/>
<polygon fill="black" stroke="black" points="158.64,-540.752 148.608,-537.345 154.326,-546.264 158.64,-540.752"/>
</g>
<!-- 11&#45;&gt;13 -->
<g id="edge44" class="edge"><title>11&#45;&gt;13</title>
<path fill="none" stroke="black" d="M221,-575.831C221,-568.131 221,-558.974 221,-550.417"/>
<polygon fill="black" stroke="black" points="224.5,-550.413 221,-540.413 217.5,-550.413 224.5,-550.413"/>
</g>
<!-- 21 -->
<g id="node18" class="node"><title>21</title>
<ellipse fill="none" stroke="black" cx="313" cy="-522" rx="36.8288" ry="18"/>
<text text-anchor="middle" x="313" y="-517.9" font-family="Times Roman,serif" font-size="14.00">2223</text>
</g>
<!-- 11&#45;&gt;21 -->
<g id="edge46" class="edge"><title>11&#45;&gt;21</title>
<path fill="none" stroke="black" d="M240.963,-578.377C253.951,-568.212 271.068,-554.816 285.358,-543.633"/>
<polygon fill="black" stroke="black" points="287.674,-546.264 293.392,-537.345 283.36,-540.752 287.674,-546.264"/>
</g>
<!-- 9 -->
<g id="node14" class="node"><title>9</title>
<ellipse fill="none" stroke="black" cx="37" cy="-450" rx="36.8288" ry="18"/>
<text text-anchor="middle" x="37" y="-445.9" font-family="Times Roman,serif" font-size="14.00">1144</text>
</g>
<!-- 8&#45;&gt;9 -->
<g id="edge32" class="edge"><title>8&#45;&gt;9</title>
<path fill="none" stroke="black" d="M37,-503.831C37,-496.131 37,-486.974 37,-478.417"/>
<polygon fill="black" stroke="black" points="40.5001,-478.413 37,-468.413 33.5001,-478.413 40.5001,-478.413"/>
</g>
<!-- 14 -->
<g id="node15" class="node"><title>14</title>
<ellipse fill="none" stroke="black" cx="129" cy="-450" rx="36.8288" ry="18"/>
<text text-anchor="middle" x="129" y="-445.9" font-family="Times Roman,serif" font-size="14.00">1234</text>
</g>
<!-- 8&#45;&gt;14 -->
<g id="edge34" class="edge"><title>8&#45;&gt;14</title>
<path fill="none" stroke="black" d="M56.9626,-506.377C69.9507,-496.212 87.0681,-482.816 101.358,-471.633"/>
<polygon fill="black" stroke="black" points="103.674,-474.264 109.392,-465.345 99.3602,-468.752 103.674,-474.264"/>
</g>
<!-- 12&#45;&gt;14 -->
<g id="edge48" class="edge"><title>12&#45;&gt;14</title>
<path fill="none" stroke="black" d="M129,-503.831C129,-496.131 129,-486.974 129,-478.417"/>
<polygon fill="black" stroke="black" points="132.5,-478.413 129,-468.413 125.5,-478.413 132.5,-478.413"/>
</g>
<!-- 22 -->
<g id="node19" class="node"><title>22</title>
<ellipse fill="none" stroke="black" cx="313" cy="-450" rx="36.8288" ry="18"/>
<text text-anchor="middle" x="313" y="-445.9" font-family="Times Roman,serif" font-size="14.00">2224</text>
</g>
<!-- 12&#45;&gt;22 -->
<g id="edge50" class="edge"><title>12&#45;&gt;22</title>
<path fill="none" stroke="black" d="M158.155,-510.591C189.648,-498.268 239.96,-478.581 274.642,-465.01"/>
<polygon fill="black" stroke="black" points="275.944,-468.259 283.981,-461.355 273.393,-461.74 275.944,-468.259"/>
</g>
<!-- 13&#45;&gt;14 -->
<g id="edge52" class="edge"><title>13&#45;&gt;14</title>
<path fill="none" stroke="black" d="M201.037,-506.377C188.049,-496.212 170.932,-482.816 156.642,-471.633"/>
<polygon fill="black" stroke="black" points="158.64,-468.752 148.608,-465.345 154.326,-474.264 158.64,-468.752"/>
</g>
<!-- 16 -->
<g id="node20" class="node"><title>16</title>
<ellipse fill="none" stroke="black" cx="221" cy="-450" rx="36.8288" ry="18"/>
<text text-anchor="middle" x="221" y="-445.9" font-family="Times Roman,serif" font-size="14.00">1333</text>
</g>
<!-- 13&#45;&gt;16 -->
<g id="edge54" class="edge"><title>13&#45;&gt;16</title>
<path fill="none" stroke="black" d="M221,-503.831C221,-496.131 221,-486.974 221,-478.417"/>
<polygon fill="black" stroke="black" points="224.5,-478.413 221,-468.413 217.5,-478.413 224.5,-478.413"/>
</g>
<!-- 23 -->
<g id="node21" class="node"><title>23</title>
<ellipse fill="none" stroke="black" cx="405" cy="-450" rx="36.8288" ry="18"/>
<text text-anchor="middle" x="405" y="-445.9" font-family="Times Roman,serif" font-size="14.00">2233</text>
</g>
<!-- 13&#45;&gt;23 -->
<g id="edge56" class="edge"><title>13&#45;&gt;23</title>
<path fill="none" stroke="black" d="M250.155,-510.591C281.648,-498.268 331.96,-478.581 366.642,-465.01"/>
<polygon fill="black" stroke="black" points="367.944,-468.259 375.981,-461.355 365.393,-461.74 367.944,-468.259"/>
</g>
<!-- 15 -->
<g id="node16" class="node"><title>15</title>
<ellipse fill="none" stroke="black" cx="129" cy="-378" rx="36.8288" ry="18"/>
<text text-anchor="middle" x="129" y="-373.9" font-family="Times Roman,serif" font-size="14.00">1244</text>
</g>
<!-- 9&#45;&gt;15 -->
<g id="edge36" class="edge"><title>9&#45;&gt;15</title>
<path fill="none" stroke="black" d="M56.9626,-434.377C69.9507,-424.212 87.0681,-410.816 101.358,-399.633"/>
<polygon fill="black" stroke="black" points="103.674,-402.264 109.392,-393.345 99.3602,-396.752 103.674,-402.264"/>
</g>
<!-- 14&#45;&gt;15 -->
<g id="edge58" class="edge"><title>14&#45;&gt;15</title>
<path fill="none" stroke="black" d="M129,-431.831C129,-424.131 129,-414.974 129,-406.417"/>
<polygon fill="black" stroke="black" points="132.5,-406.413 129,-396.413 125.5,-406.413 132.5,-406.413"/>
</g>
<!-- 17 -->
<g id="node22" class="node"><title>17</title>
<ellipse fill="none" stroke="black" cx="221" cy="-378" rx="36.8288" ry="18"/>
<text text-anchor="middle" x="221" y="-373.9" font-family="Times Roman,serif" font-size="14.00">1334</text>
</g>
<!-- 14&#45;&gt;17 -->
<g id="edge60" class="edge"><title>14&#45;&gt;17</title>
<path fill="none" stroke="black" d="M148.963,-434.377C161.951,-424.212 179.068,-410.816 193.358,-399.633"/>
<polygon fill="black" stroke="black" points="195.674,-402.264 201.392,-393.345 191.36,-396.752 195.674,-402.264"/>
</g>
<!-- 24 -->
<g id="node23" class="node"><title>24</title>
<ellipse fill="none" stroke="black" cx="313" cy="-378" rx="36.8288" ry="18"/>
<text text-anchor="middle" x="313" y="-373.9" font-family="Times Roman,serif" font-size="14.00">2234</text>
</g>
<!-- 14&#45;&gt;24 -->
<g id="edge62" class="edge"><title>14&#45;&gt;24</title>
<path fill="none" stroke="black" d="M158.155,-438.591C189.648,-426.268 239.96,-406.581 274.642,-393.01"/>
<polygon fill="black" stroke="black" points="275.944,-396.259 283.981,-389.355 273.393,-389.74 275.944,-396.259"/>
</g>
<!-- 18 -->
<g id="node24" class="node"><title>18</title>
<ellipse fill="none" stroke="black" cx="129" cy="-306" rx="36.8288" ry="18"/>
<text text-anchor="middle" x="129" y="-301.9" font-family="Times Roman,serif" font-size="14.00">1344</text>
</g>
<!-- 15&#45;&gt;18 -->
<g id="edge64" class="edge"><title>15&#45;&gt;18</title>
<path fill="none" stroke="black" d="M129,-359.831C129,-352.131 129,-342.974 129,-334.417"/>
<polygon fill="black" stroke="black" points="132.5,-334.413 129,-324.413 125.5,-334.413 132.5,-334.413"/>
</g>
<!-- 25 -->
<g id="node25" class="node"><title>25</title>
<ellipse fill="none" stroke="black" cx="221" cy="-306" rx="36.8288" ry="18"/>
<text text-anchor="middle" x="221" y="-301.9" font-family="Times Roman,serif" font-size="14.00">2244</text>
</g>
<!-- 15&#45;&gt;25 -->
<g id="edge66" class="edge"><title>15&#45;&gt;25</title>
<path fill="none" stroke="black" d="M148.963,-362.377C161.951,-352.212 179.068,-338.816 193.358,-327.633"/>
<polygon fill="black" stroke="black" points="195.674,-330.264 201.392,-321.345 191.36,-324.752 195.674,-330.264"/>
</g>
<!-- 20&#45;&gt;21 -->
<g id="edge82" class="edge"><title>20&#45;&gt;21</title>
<path fill="none" stroke="black" d="M313,-575.831C313,-568.131 313,-558.974 313,-550.417"/>
<polygon fill="black" stroke="black" points="316.5,-550.413 313,-540.413 309.5,-550.413 316.5,-550.413"/>
</g>
<!-- 21&#45;&gt;22 -->
<g id="edge84" class="edge"><title>21&#45;&gt;22</title>
<path fill="none" stroke="black" d="M313,-503.831C313,-496.131 313,-486.974 313,-478.417"/>
<polygon fill="black" stroke="black" points="316.5,-478.413 313,-468.413 309.5,-478.413 316.5,-478.413"/>
</g>
<!-- 21&#45;&gt;23 -->
<g id="edge86" class="edge"><title>21&#45;&gt;23</title>
<path fill="none" stroke="black" d="M332.963,-506.377C345.951,-496.212 363.068,-482.816 377.358,-471.633"/>
<polygon fill="black" stroke="black" points="379.674,-474.264 385.392,-465.345 375.36,-468.752 379.674,-474.264"/>
</g>
<!-- 22&#45;&gt;24 -->
<g id="edge88" class="edge"><title>22&#45;&gt;24</title>
<path fill="none" stroke="black" d="M313,-431.831C313,-424.131 313,-414.974 313,-406.417"/>
<polygon fill="black" stroke="black" points="316.5,-406.413 313,-396.413 309.5,-406.413 316.5,-406.413"/>
</g>
<!-- 16&#45;&gt;17 -->
<g id="edge68" class="edge"><title>16&#45;&gt;17</title>
<path fill="none" stroke="black" d="M221,-431.831C221,-424.131 221,-414.974 221,-406.417"/>
<polygon fill="black" stroke="black" points="224.5,-406.413 221,-396.413 217.5,-406.413 224.5,-406.413"/>
</g>
<!-- 26 -->
<g id="node26" class="node"><title>26</title>
<ellipse fill="none" stroke="black" cx="405" cy="-378" rx="36.8288" ry="18"/>
<text text-anchor="middle" x="405" y="-373.9" font-family="Times Roman,serif" font-size="14.00">2333</text>
</g>
<!-- 16&#45;&gt;26 -->
<g id="edge70" class="edge"><title>16&#45;&gt;26</title>
<path fill="none" stroke="black" d="M250.155,-438.591C281.648,-426.268 331.96,-406.581 366.642,-393.01"/>
<polygon fill="black" stroke="black" points="367.944,-396.259 375.981,-389.355 365.393,-389.74 367.944,-396.259"/>
</g>
<!-- 23&#45;&gt;24 -->
<g id="edge90" class="edge"><title>23&#45;&gt;24</title>
<path fill="none" stroke="black" d="M385.037,-434.377C372.049,-424.212 354.932,-410.816 340.642,-399.633"/>
<polygon fill="black" stroke="black" points="342.64,-396.752 332.608,-393.345 338.326,-402.264 342.64,-396.752"/>
</g>
<!-- 23&#45;&gt;26 -->
<g id="edge92" class="edge"><title>23&#45;&gt;26</title>
<path fill="none" stroke="black" d="M405,-431.831C405,-424.131 405,-414.974 405,-406.417"/>
<polygon fill="black" stroke="black" points="408.5,-406.413 405,-396.413 401.5,-406.413 408.5,-406.413"/>
</g>
<!-- 17&#45;&gt;18 -->
<g id="edge72" class="edge"><title>17&#45;&gt;18</title>
<path fill="none" stroke="black" d="M201.037,-362.377C188.049,-352.212 170.932,-338.816 156.642,-327.633"/>
<polygon fill="black" stroke="black" points="158.64,-324.752 148.608,-321.345 154.326,-330.264 158.64,-324.752"/>
</g>
<!-- 27 -->
<g id="node27" class="node"><title>27</title>
<ellipse fill="none" stroke="black" cx="313" cy="-306" rx="36.8288" ry="18"/>
<text text-anchor="middle" x="313" y="-301.9" font-family="Times Roman,serif" font-size="14.00">2334</text>
</g>
<!-- 17&#45;&gt;27 -->
<g id="edge74" class="edge"><title>17&#45;&gt;27</title>
<path fill="none" stroke="black" d="M240.963,-362.377C253.951,-352.212 271.068,-338.816 285.358,-327.633"/>
<polygon fill="black" stroke="black" points="287.674,-330.264 293.392,-321.345 283.36,-324.752 287.674,-330.264"/>
</g>
<!-- 24&#45;&gt;25 -->
<g id="edge94" class="edge"><title>24&#45;&gt;25</title>
<path fill="none" stroke="black" d="M293.037,-362.377C280.049,-352.212 262.932,-338.816 248.642,-327.633"/>
<polygon fill="black" stroke="black" points="250.64,-324.752 240.608,-321.345 246.326,-330.264 250.64,-324.752"/>
</g>
<!-- 24&#45;&gt;27 -->
<g id="edge96" class="edge"><title>24&#45;&gt;27</title>
<path fill="none" stroke="black" d="M313,-359.831C313,-352.131 313,-342.974 313,-334.417"/>
<polygon fill="black" stroke="black" points="316.5,-334.413 313,-324.413 309.5,-334.413 316.5,-334.413"/>
</g>
<!-- 19 -->
<g id="node28" class="node"><title>19</title>
<ellipse fill="none" stroke="black" cx="129" cy="-234" rx="36.8288" ry="18"/>
<text text-anchor="middle" x="129" y="-229.9" font-family="Times Roman,serif" font-size="14.00">1444</text>
</g>
<!-- 18&#45;&gt;19 -->
<g id="edge76" class="edge"><title>18&#45;&gt;19</title>
<path fill="none" stroke="black" d="M129,-287.831C129,-280.131 129,-270.974 129,-262.417"/>
<polygon fill="black" stroke="black" points="132.5,-262.413 129,-252.413 125.5,-262.413 132.5,-262.413"/>
</g>
<!-- 28 -->
<g id="node29" class="node"><title>28</title>
<ellipse fill="none" stroke="black" cx="221" cy="-234" rx="36.8288" ry="18"/>
<text text-anchor="middle" x="221" y="-229.9" font-family="Times Roman,serif" font-size="14.00">2344</text>
</g>
<!-- 18&#45;&gt;28 -->
<g id="edge78" class="edge"><title>18&#45;&gt;28</title>
<path fill="none" stroke="black" d="M148.963,-290.377C161.951,-280.212 179.068,-266.816 193.358,-255.633"/>
<polygon fill="black" stroke="black" points="195.674,-258.264 201.392,-249.345 191.36,-252.752 195.674,-258.264"/>
</g>
<!-- 25&#45;&gt;28 -->
<g id="edge98" class="edge"><title>25&#45;&gt;28</title>
<path fill="none" stroke="black" d="M221,-287.831C221,-280.131 221,-270.974 221,-262.417"/>
<polygon fill="black" stroke="black" points="224.5,-262.413 221,-252.413 217.5,-262.413 224.5,-262.413"/>
</g>
<!-- 26&#45;&gt;27 -->
<g id="edge100" class="edge"><title>26&#45;&gt;27</title>
<path fill="none" stroke="black" d="M385.037,-362.377C372.049,-352.212 354.932,-338.816 340.642,-327.633"/>
<polygon fill="black" stroke="black" points="342.64,-324.752 332.608,-321.345 338.326,-330.264 342.64,-324.752"/>
</g>
<!-- 30 -->
<g id="node31" class="node"><title>30</title>
<ellipse fill="none" stroke="black" cx="405" cy="-306" rx="36.8288" ry="18"/>
<text text-anchor="middle" x="405" y="-301.9" font-family="Times Roman,serif" font-size="14.00">3333</text>
</g>
<!-- 26&#45;&gt;30 -->
<g id="edge102" class="edge"><title>26&#45;&gt;30</title>
<path fill="none" stroke="black" d="M405,-359.831C405,-352.131 405,-342.974 405,-334.417"/>
<polygon fill="black" stroke="black" points="408.5,-334.413 405,-324.413 401.5,-334.413 408.5,-334.413"/>
</g>
<!-- 27&#45;&gt;28 -->
<g id="edge104" class="edge"><title>27&#45;&gt;28</title>
<path fill="none" stroke="black" d="M293.037,-290.377C280.049,-280.212 262.932,-266.816 248.642,-255.633"/>
<polygon fill="black" stroke="black" points="250.64,-252.752 240.608,-249.345 246.326,-258.264 250.64,-252.752"/>
</g>
<!-- 31 -->
<g id="node32" class="node"><title>31</title>
<ellipse fill="none" stroke="black" cx="313" cy="-234" rx="36.8288" ry="18"/>
<text text-anchor="middle" x="313" y="-229.9" font-family="Times Roman,serif" font-size="14.00">3334</text>
</g>
<!-- 27&#45;&gt;31 -->
<g id="edge106" class="edge"><title>27&#45;&gt;31</title>
<path fill="none" stroke="black" d="M313,-287.831C313,-280.131 313,-270.974 313,-262.417"/>
<polygon fill="black" stroke="black" points="316.5,-262.413 313,-252.413 309.5,-262.413 316.5,-262.413"/>
</g>
<!-- 29 -->
<g id="node30" class="node"><title>29</title>
<ellipse fill="none" stroke="black" cx="129" cy="-162" rx="36.8288" ry="18"/>
<text text-anchor="middle" x="129" y="-157.9" font-family="Times Roman,serif" font-size="14.00">2444</text>
</g>
<!-- 19&#45;&gt;29 -->
<g id="edge80" class="edge"><title>19&#45;&gt;29</title>
<path fill="none" stroke="black" d="M129,-215.831C129,-208.131 129,-198.974 129,-190.417"/>
<polygon fill="black" stroke="black" points="132.5,-190.413 129,-180.413 125.5,-190.413 132.5,-190.413"/>
</g>
<!-- 28&#45;&gt;29 -->
<g id="edge108" class="edge"><title>28&#45;&gt;29</title>
<path fill="none" stroke="black" d="M201.037,-218.377C188.049,-208.212 170.932,-194.816 156.642,-183.633"/>
<polygon fill="black" stroke="black" points="158.64,-180.752 148.608,-177.345 154.326,-186.264 158.64,-180.752"/>
</g>
<!-- 32 -->
<g id="node33" class="node"><title>32</title>
<ellipse fill="none" stroke="black" cx="221" cy="-162" rx="36.8288" ry="18"/>
<text text-anchor="middle" x="221" y="-157.9" font-family="Times Roman,serif" font-size="14.00">3344</text>
</g>
<!-- 28&#45;&gt;32 -->
<g id="edge110" class="edge"><title>28&#45;&gt;32</title>
<path fill="none" stroke="black" d="M221,-215.831C221,-208.131 221,-198.974 221,-190.417"/>
<polygon fill="black" stroke="black" points="224.5,-190.413 221,-180.413 217.5,-190.413 224.5,-190.413"/>
</g>
<!-- 33 -->
<g id="node34" class="node"><title>33</title>
<ellipse fill="none" stroke="black" cx="175" cy="-90" rx="36.8288" ry="18"/>
<text text-anchor="middle" x="175" y="-85.9" font-family="Times Roman,serif" font-size="14.00">3444</text>
</g>
<!-- 29&#45;&gt;33 -->
<g id="edge112" class="edge"><title>29&#45;&gt;33</title>
<path fill="none" stroke="black" d="M140.135,-144.571C145.616,-135.992 152.335,-125.476 158.406,-115.973"/>
<polygon fill="black" stroke="black" points="161.533,-117.58 163.967,-107.269 155.634,-113.811 161.533,-117.58"/>
</g>
<!-- 30&#45;&gt;31 -->
<g id="edge114" class="edge"><title>30&#45;&gt;31</title>
<path fill="none" stroke="black" d="M385.037,-290.377C372.049,-280.212 354.932,-266.816 340.642,-255.633"/>
<polygon fill="black" stroke="black" points="342.64,-252.752 332.608,-249.345 338.326,-258.264 342.64,-252.752"/>
</g>
<!-- 31&#45;&gt;32 -->
<g id="edge116" class="edge"><title>31&#45;&gt;32</title>
<path fill="none" stroke="black" d="M293.037,-218.377C280.049,-208.212 262.932,-194.816 248.642,-183.633"/>
<polygon fill="black" stroke="black" points="250.64,-180.752 240.608,-177.345 246.326,-186.264 250.64,-180.752"/>
</g>
<!-- 32&#45;&gt;33 -->
<g id="edge118" class="edge"><title>32&#45;&gt;33</title>
<path fill="none" stroke="black" d="M209.865,-144.571C204.384,-135.992 197.665,-125.476 191.594,-115.973"/>
<polygon fill="black" stroke="black" points="194.366,-113.811 186.033,-107.269 188.467,-117.58 194.366,-113.811"/>
</g>
<!-- 34 -->
<g id="node35" class="node"><title>34</title>
<ellipse fill="none" stroke="black" cx="175" cy="-18" rx="36.8288" ry="18"/>
<text text-anchor="middle" x="175" y="-13.9" font-family="Times Roman,serif" font-size="14.00">4444</text>
</g>
<!-- 33&#45;&gt;34 -->
<g id="edge120" class="edge"><title>33&#45;&gt;34</title>
<path fill="none" stroke="black" d="M175,-71.8314C175,-64.131 175,-54.9743 175,-46.4166"/>
<polygon fill="black" stroke="black" points="178.5,-46.4132 175,-36.4133 171.5,-46.4133 178.5,-46.4132"/>
</g>
</g>
</svg>
