<?xml version="1.0" encoding="UTF-8" standalone="no"?>
<!DOCTYPE svg PUBLIC "-//W3C//DTD SVG 1.1//EN"
 "http://www.w3.org/Graphics/SVG/1.1/DTD/svg11.dtd">
<!-- Generated by graphviz version 2.26.3 (20100126.1600)
 -->
<!-- Title: G Pages: 1 -->
<svg width="146pt" height="476pt"
 viewBox="0.00 0.00 146.00 476.00" xmlns="http://www.w3.org/2000/svg" xmlns:xlink="http://www.w3.org/1999/xlink">
<g id="graph1" class="graph" transform="scale(1 1) rotate(0) translate(4 472)">
<title>G</title>
<polygon fill="white" stroke="white" points="-4,5 -4,-472 143,-472 143,5 -4,5"/>
<!-- 0 -->
<g id="node1" class="node"><title>0</title>
<ellipse fill="none" stroke="black" cx="69" cy="-450" rx="30.0736" ry="18"/>
<text text-anchor="middle" x="69" y="-445.9" font-family="Times Roman,serif" font-size="14.00">111</text>
</g>
<!-- 1 -->
<g id="node2" class="node"><title>1</title>
<ellipse fill="none" stroke="black" cx="69" cy="-378" rx="30.0736" ry="18"/>
<text text-anchor="middle" x="69" y="-373.9" font-family="Times Roman,serif" font-size="14.00">112</text>
</g>
<!-- 0&#45;&gt;1 -->
<g id="edge2" class="edge"><title>0&#45;&gt;1</title>
<path fill="none" stroke="black" d="M69,-431.831C69,-424.131 69,-414.974 69,-406.417"/>
<polygon fill="black" stroke="black" points="72.5001,-406.413 69,-396.413 65.5001,-406.413 72.5001,-406.413"/>
</g>
<!-- 2 -->
<g id="node3" class="node"><title>2</title>
<ellipse fill="none" stroke="black" cx="30" cy="-306" rx="30.0736" ry="18"/>
<text text-anchor="middle" x="30" y="-301.9" font-family="Times Roman,serif" font-size="14.00">113</text>
</g>
<!-- 1&#45;&gt;2 -->
<g id="edge4" class="edge"><title>1&#45;&gt;2</title>
<path fill="none" stroke="black" d="M59.5592,-360.571C54.9604,-352.081 49.3336,-341.693 44.2282,-332.267"/>
<polygon fill="black" stroke="black" points="47.1943,-330.395 39.3539,-323.269 41.0392,-333.729 47.1943,-330.395"/>
</g>
<!-- 3 -->
<g id="node4" class="node"><title>3</title>
<ellipse fill="none" stroke="black" cx="108" cy="-306" rx="30.0736" ry="18"/>
<text text-anchor="middle" x="108" y="-301.9" font-family="Times Roman,serif" font-size="14.00">122</text>
</g>
<!-- 1&#45;&gt;3 -->
<g id="edge6" class="edge"><title>1&#45;&gt;3</title>
<path fill="none" stroke="black" d="M78.4408,-360.571C83.0396,-352.081 88.6664,-341.693 93.7718,-332.267"/>
<polygon fill="black" stroke="black" points="96.9608,-333.729 98.6461,-323.269 90.8057,-330.395 96.9608,-333.729"/>
</g>
<!-- 4 -->
<g id="node5" class="node"><title>4</title>
<ellipse fill="none" stroke="black" cx="30" cy="-234" rx="30.0736" ry="18"/>
<text text-anchor="middle" x="30" y="-229.9" font-family="Times Roman,serif" font-size="14.00">123</text>
</g>
<!-- 2&#45;&gt;4 -->
<g id="edge8" class="edge"><title>2&#45;&gt;4</title>
<path fill="none" stroke="black" d="M30,-287.831C30,-280.131 30,-270.974 30,-262.417"/>
<polygon fill="black" stroke="black" points="33.5001,-262.413 30,-252.413 26.5001,-262.413 33.5001,-262.413"/>
</g>
<!-- 3&#45;&gt;4 -->
<g id="edge10" class="edge"><title>3&#45;&gt;4</title>
<path fill="none" stroke="black" d="M91.4582,-290.731C80.5998,-280.708 66.2181,-267.432 54.097,-256.243"/>
<polygon fill="black" stroke="black" points="56.24,-253.458 46.5179,-249.247 51.492,-258.602 56.24,-253.458"/>
</g>
<!-- 6 -->
<g id="node6" class="node"><title>6</title>
<ellipse fill="none" stroke="black" cx="108" cy="-234" rx="30.0736" ry="18"/>
<text text-anchor="middle" x="108" y="-229.9" font-family="Times Roman,serif" font-size="14.00">222</text>
</g>
<!-- 3&#45;&gt;6 -->
<g id="edge12" class="edge"><title>3&#45;&gt;6</title>
<path fill="none" stroke="black" d="M108,-287.831C108,-280.131 108,-270.974 108,-262.417"/>
<polygon fill="black" stroke="black" points="111.5,-262.413 108,-252.413 104.5,-262.413 111.5,-262.413"/>
</g>
<!-- 5 -->
<g id="node7" class="node"><title>5</title>
<ellipse fill="none" stroke="black" cx="30" cy="-162" rx="30.0736" ry="18"/>
<text text-anchor="middle" x="30" y="-157.9" font-family="Times Roman,serif" font-size="14.00">133</text>
</g>
<!-- 4&#45;&gt;5 -->
<g id="edge14" class="edge"><title>4&#45;&gt;5</title>
<path fill="none" stroke="black" d="M30,-215.831C30,-208.131 30,-198.974 30,-190.417"/>
<polygon fill="black" stroke="black" points="33.5001,-190.413 30,-180.413 26.5001,-190.413 33.5001,-190.413"/>
</g>
<!-- 7 -->
<g id="node8" class="node"><title>7</title>
<ellipse fill="none" stroke="black" cx="108" cy="-162" rx="30.0736" ry="18"/>
<text text-anchor="middle" x="108" y="-157.9" font-family="Times Roman,serif" font-size="14.00">223</text>
</g>
<!-- 4&#45;&gt;7 -->
<g id="edge16" class="edge"><title>4&#45;&gt;7</title>
<path fill="none" stroke="black" d="M46.5418,-218.731C57.4002,-208.708 71.7819,-195.432 83.903,-184.243"/>
<polygon fill="black" stroke="black" points="86.508,-186.602 91.4821,-177.247 81.76,-181.458 86.508,-186.602"/>
</g>
<!-- 6&#45;&gt;7 -->
<g id="edge20" class="edge"><title>6&#45;&gt;7</title>
<path fill="none" stroke="black" d="M108,-215.831C108,-208.131 108,-198.974 108,-190.417"/>
<polygon fill="black" stroke="black" points="111.5,-190.413 108,-180.413 104.5,-190.413 111.5,-190.413"/>
</g>
<!-- 8 -->
<g id="node9" class="node"><title>8</title>
<ellipse fill="none" stroke="black" cx="69" cy="-90" rx="30.0736" ry="18"/>
<text text-anchor="middle" x="69" y="-85.9" font-family="Times Roman,serif" font-size="14.00">233</text>
</g>
<!-- 5&#45;&gt;8 -->
<g id="edge18" class="edge"><title>5&#45;&gt;8</title>
<path fill="none" stroke="black" d="M39.4408,-144.571C44.0396,-136.081 49.6664,-125.693 54.7718,-116.267"/>
<polygon fill="black" stroke="black" points="57.9608,-117.729 59.6461,-107.269 51.8057,-114.395 57.9608,-117.729"/>
</g>
<!-- 7&#45;&gt;8 -->
<g id="edge22" class="edge"><title>7&#45;&gt;8</title>
<path fill="none" stroke="black" d="M98.5592,-144.571C93.9604,-136.081 88.3336,-125.693 83.2282,-116.267"/>
<polygon fill="black" stroke="black" points="86.1943,-114.395 78.3539,-107.269 80.0392,-117.729 86.1943,-114.395"/>
</g>
<!-- 9 -->
<g id="node10" class="node"><title>9</title>
<ellipse fill="none" stroke="black" cx="69" cy="-18" rx="30.0736" ry="18"/>
<text text-anchor="middle" x="69" y="-13.9" font-family="Times Roman,serif" font-size="14.00">333</text>
</g>
<!-- 8&#45;&gt;9 -->
<g id="edge24" class="edge"><title>8&#45;&gt;9</title>
<path fill="none" stroke="black" d="M69,-71.8314C69,-64.131 69,-54.9743 69,-46.4166"/>
<polygon fill="black" stroke="black" points="72.5001,-46.4132 69,-36.4133 65.5001,-46.4133 72.5001,-46.4132"/>
</g>
</g>
</svg>
