<?xml version="1.0" encoding="UTF-8" standalone="no"?>
<!DOCTYPE svg PUBLIC "-//W3C//DTD SVG 1.1//EN"
 "http://www.w3.org/Graphics/SVG/1.1/DTD/svg11.dtd">
<!-- Generated by graphviz version 2.26.3 (20100126.1600)
 -->
<!-- Title: G Pages: 1 -->
<svg width="68pt" height="260pt"
 viewBox="0.00 0.00 68.00 260.00" xmlns="http://www.w3.org/2000/svg" xmlns:xlink="http://www.w3.org/1999/xlink">
<g id="graph1" class="graph" transform="scale(1 1) rotate(0) translate(4 256)">
<title>G</title>
<polygon fill="white" stroke="white" points="-4,5 -4,-256 65,-256 65,5 -4,5"/>
<!-- 0 -->
<g id="node1" class="node"><title>0</title>
<ellipse fill="none" stroke="black" cx="30" cy="-234" rx="30.0736" ry="18"/>
<text text-anchor="middle" x="30" y="-229.9" font-family="Times Roman,serif" font-size="14.00">111</text>
</g>
<!-- 1 -->
<g id="node2" class="node"><title>1</title>
<ellipse fill="none" stroke="black" cx="30" cy="-162" rx="30.0736" ry="18"/>
<text text-anchor="middle" x="30" y="-157.9" font-family="Times Roman,serif" font-size="14.00">112</text>
</g>
<!-- 0&#45;&gt;1 -->
<g id="edge2" class="edge"><title>0&#45;&gt;1</title>
<path fill="none" stroke="black" d="M30,-215.831C30,-208.131 30,-198.974 30,-190.417"/>
<polygon fill="black" stroke="black" points="33.5001,-190.413 30,-180.413 26.5001,-190.413 33.5001,-190.413"/>
</g>
<!-- 2 -->
<g id="node3" class="node"><title>2</title>
<ellipse fill="none" stroke="black" cx="30" cy="-90" rx="30.0736" ry="18"/>
<text text-anchor="middle" x="30" y="-85.9" font-family="Times Roman,serif" font-size="14.00">122</text>
</g>
<!-- 1&#45;&gt;2 -->
<g id="edge4" class="edge"><title>1&#45;&gt;2</title>
<path fill="none" stroke="black" d="M30,-143.831C30,-136.131 30,-126.974 30,-118.417"/>
<polygon fill="black" stroke="black" points="33.5001,-118.413 30,-108.413 26.5001,-118.413 33.5001,-118.413"/>
</g>
<!-- 3 -->
<g id="node4" class="node"><title>3</title>
<ellipse fill="none" stroke="black" cx="30" cy="-18" rx="30.0736" ry="18"/>
<text text-anchor="middle" x="30" y="-13.9" font-family="Times Roman,serif" font-size="14.00">222</text>
</g>
<!-- 2&#45;&gt;3 -->
<g id="edge6" class="edge"><title>2&#45;&gt;3</title>
<path fill="none" stroke="black" d="M30,-71.8314C30,-64.131 30,-54.9743 30,-46.4166"/>
<polygon fill="black" stroke="black" points="33.5001,-46.4132 30,-36.4133 26.5001,-46.4133 33.5001,-46.4132"/>
</g>
</g>
</svg>
