<?xml version="1.0" encoding="UTF-8" standalone="no"?>
<!DOCTYPE svg PUBLIC "-//W3C//DTD SVG 1.1//EN"
 "http://www.w3.org/Graphics/SVG/1.1/DTD/svg11.dtd">
<!-- Generated by graphviz version 2.26.3 (20100126.1600)
 -->
<!-- Title: G Pages: 1 -->
<svg width="224pt" height="692pt"
 viewBox="0.00 0.00 224.00 692.00" xmlns="http://www.w3.org/2000/svg" xmlns:xlink="http://www.w3.org/1999/xlink">
<g id="graph1" class="graph" transform="scale(1 1) rotate(0) translate(4 688)">
<title>G</title>
<polygon fill="white" stroke="white" points="-4,5 -4,-688 221,-688 221,5 -4,5"/>
<!-- 0 -->
<g id="node1" class="node"><title>0</title>
<ellipse fill="none" stroke="black" cx="108" cy="-666" rx="30.0736" ry="18"/>
<text text-anchor="middle" x="108" y="-661.9" font-family="Times Roman,serif" font-size="14.00">111</text>
</g>
<!-- 1 -->
<g id="node2" class="node"><title>1</title>
<ellipse fill="none" stroke="black" cx="108" cy="-594" rx="30.0736" ry="18"/>
<text text-anchor="middle" x="108" y="-589.9" font-family="Times Roman,serif" font-size="14.00">112</text>
</g>
<!-- 0&#45;&gt;1 -->
<g id="edge2" class="edge"><title>0&#45;&gt;1</title>
<path fill="none" stroke="black" d="M108,-647.831C108,-640.131 108,-630.974 108,-622.417"/>
<polygon fill="black" stroke="black" points="111.5,-622.413 108,-612.413 104.5,-622.413 111.5,-622.413"/>
</g>
<!-- 2 -->
<g id="node3" class="node"><title>2</title>
<ellipse fill="none" stroke="black" cx="69" cy="-522" rx="30.0736" ry="18"/>
<text text-anchor="middle" x="69" y="-517.9" font-family="Times Roman,serif" font-size="14.00">113</text>
</g>
<!-- 1&#45;&gt;2 -->
<g id="edge4" class="edge"><title>1&#45;&gt;2</title>
<path fill="none" stroke="black" d="M98.5592,-576.571C93.9604,-568.081 88.3336,-557.693 83.2282,-548.267"/>
<polygon fill="black" stroke="black" points="86.1943,-546.395 78.3539,-539.269 80.0392,-549.729 86.1943,-546.395"/>
</g>
<!-- 4 -->
<g id="node4" class="node"><title>4</title>
<ellipse fill="none" stroke="black" cx="147" cy="-522" rx="30.0736" ry="18"/>
<text text-anchor="middle" x="147" y="-517.9" font-family="Times Roman,serif" font-size="14.00">122</text>
</g>
<!-- 1&#45;&gt;4 -->
<g id="edge6" class="edge"><title>1&#45;&gt;4</title>
<path fill="none" stroke="black" d="M117.441,-576.571C122.04,-568.081 127.666,-557.693 132.772,-548.267"/>
<polygon fill="black" stroke="black" points="135.961,-549.729 137.646,-539.269 129.806,-546.395 135.961,-549.729"/>
</g>
<!-- 3 -->
<g id="node5" class="node"><title>3</title>
<ellipse fill="none" stroke="black" cx="30" cy="-450" rx="30.0736" ry="18"/>
<text text-anchor="middle" x="30" y="-445.9" font-family="Times Roman,serif" font-size="14.00">114</text>
</g>
<!-- 2&#45;&gt;3 -->
<g id="edge8" class="edge"><title>2&#45;&gt;3</title>
<path fill="none" stroke="black" d="M59.5592,-504.571C54.9604,-496.081 49.3336,-485.693 44.2282,-476.267"/>
<polygon fill="black" stroke="black" points="47.1943,-474.395 39.3539,-467.269 41.0392,-477.729 47.1943,-474.395"/>
</g>
<!-- 5 -->
<g id="node6" class="node"><title>5</title>
<ellipse fill="none" stroke="black" cx="108" cy="-450" rx="30.0736" ry="18"/>
<text text-anchor="middle" x="108" y="-445.9" font-family="Times Roman,serif" font-size="14.00">123</text>
</g>
<!-- 2&#45;&gt;5 -->
<g id="edge10" class="edge"><title>2&#45;&gt;5</title>
<path fill="none" stroke="black" d="M78.4408,-504.571C83.0396,-496.081 88.6664,-485.693 93.7718,-476.267"/>
<polygon fill="black" stroke="black" points="96.9608,-477.729 98.6461,-467.269 90.8057,-474.395 96.9608,-477.729"/>
</g>
<!-- 4&#45;&gt;5 -->
<g id="edge14" class="edge"><title>4&#45;&gt;5</title>
<path fill="none" stroke="black" d="M137.559,-504.571C132.96,-496.081 127.334,-485.693 122.228,-476.267"/>
<polygon fill="black" stroke="black" points="125.194,-474.395 117.354,-467.269 119.039,-477.729 125.194,-474.395"/>
</g>
<!-- 10 -->
<g id="node8" class="node"><title>10</title>
<ellipse fill="none" stroke="black" cx="186" cy="-450" rx="30.0736" ry="18"/>
<text text-anchor="middle" x="186" y="-445.9" font-family="Times Roman,serif" font-size="14.00">222</text>
</g>
<!-- 4&#45;&gt;10 -->
<g id="edge16" class="edge"><title>4&#45;&gt;10</title>
<path fill="none" stroke="black" d="M156.441,-504.571C161.04,-496.081 166.666,-485.693 171.772,-476.267"/>
<polygon fill="black" stroke="black" points="174.961,-477.729 176.646,-467.269 168.806,-474.395 174.961,-477.729"/>
</g>
<!-- 6 -->
<g id="node7" class="node"><title>6</title>
<ellipse fill="none" stroke="black" cx="30" cy="-378" rx="30.0736" ry="18"/>
<text text-anchor="middle" x="30" y="-373.9" font-family="Times Roman,serif" font-size="14.00">124</text>
</g>
<!-- 3&#45;&gt;6 -->
<g id="edge12" class="edge"><title>3&#45;&gt;6</title>
<path fill="none" stroke="black" d="M30,-431.831C30,-424.131 30,-414.974 30,-406.417"/>
<polygon fill="black" stroke="black" points="33.5001,-406.413 30,-396.413 26.5001,-406.413 33.5001,-406.413"/>
</g>
<!-- 5&#45;&gt;6 -->
<g id="edge18" class="edge"><title>5&#45;&gt;6</title>
<path fill="none" stroke="black" d="M91.4582,-434.731C80.5998,-424.708 66.2181,-411.432 54.097,-400.243"/>
<polygon fill="black" stroke="black" points="56.24,-397.458 46.5179,-393.247 51.492,-402.602 56.24,-397.458"/>
</g>
<!-- 7 -->
<g id="node9" class="node"><title>7</title>
<ellipse fill="none" stroke="black" cx="108" cy="-378" rx="30.0736" ry="18"/>
<text text-anchor="middle" x="108" y="-373.9" font-family="Times Roman,serif" font-size="14.00">133</text>
</g>
<!-- 5&#45;&gt;7 -->
<g id="edge20" class="edge"><title>5&#45;&gt;7</title>
<path fill="none" stroke="black" d="M108,-431.831C108,-424.131 108,-414.974 108,-406.417"/>
<polygon fill="black" stroke="black" points="111.5,-406.413 108,-396.413 104.5,-406.413 111.5,-406.413"/>
</g>
<!-- 11 -->
<g id="node10" class="node"><title>11</title>
<ellipse fill="none" stroke="black" cx="186" cy="-378" rx="30.0736" ry="18"/>
<text text-anchor="middle" x="186" y="-373.9" font-family="Times Roman,serif" font-size="14.00">223</text>
</g>
<!-- 5&#45;&gt;11 -->
<g id="edge22" class="edge"><title>5&#45;&gt;11</title>
<path fill="none" stroke="black" d="M124.542,-434.731C135.4,-424.708 149.782,-411.432 161.903,-400.243"/>
<polygon fill="black" stroke="black" points="164.508,-402.602 169.482,-393.247 159.76,-397.458 164.508,-402.602"/>
</g>
<!-- 8 -->
<g id="node11" class="node"><title>8</title>
<ellipse fill="none" stroke="black" cx="30" cy="-306" rx="30.0736" ry="18"/>
<text text-anchor="middle" x="30" y="-301.9" font-family="Times Roman,serif" font-size="14.00">134</text>
</g>
<!-- 6&#45;&gt;8 -->
<g id="edge24" class="edge"><title>6&#45;&gt;8</title>
<path fill="none" stroke="black" d="M30,-359.831C30,-352.131 30,-342.974 30,-334.417"/>
<polygon fill="black" stroke="black" points="33.5001,-334.413 30,-324.413 26.5001,-334.413 33.5001,-334.413"/>
</g>
<!-- 12 -->
<g id="node12" class="node"><title>12</title>
<ellipse fill="none" stroke="black" cx="108" cy="-306" rx="30.0736" ry="18"/>
<text text-anchor="middle" x="108" y="-301.9" font-family="Times Roman,serif" font-size="14.00">224</text>
</g>
<!-- 6&#45;&gt;12 -->
<g id="edge26" class="edge"><title>6&#45;&gt;12</title>
<path fill="none" stroke="black" d="M46.5418,-362.731C57.4002,-352.708 71.7819,-339.432 83.903,-328.243"/>
<polygon fill="black" stroke="black" points="86.508,-330.602 91.4821,-321.247 81.76,-325.458 86.508,-330.602"/>
</g>
<!-- 10&#45;&gt;11 -->
<g id="edge38" class="edge"><title>10&#45;&gt;11</title>
<path fill="none" stroke="black" d="M186,-431.831C186,-424.131 186,-414.974 186,-406.417"/>
<polygon fill="black" stroke="black" points="189.5,-406.413 186,-396.413 182.5,-406.413 189.5,-406.413"/>
</g>
<!-- 7&#45;&gt;8 -->
<g id="edge28" class="edge"><title>7&#45;&gt;8</title>
<path fill="none" stroke="black" d="M91.4582,-362.731C80.5998,-352.708 66.2181,-339.432 54.097,-328.243"/>
<polygon fill="black" stroke="black" points="56.24,-325.458 46.5179,-321.247 51.492,-330.602 56.24,-325.458"/>
</g>
<!-- 13 -->
<g id="node13" class="node"><title>13</title>
<ellipse fill="none" stroke="black" cx="186" cy="-306" rx="30.0736" ry="18"/>
<text text-anchor="middle" x="186" y="-301.9" font-family="Times Roman,serif" font-size="14.00">233</text>
</g>
<!-- 7&#45;&gt;13 -->
<g id="edge30" class="edge"><title>7&#45;&gt;13</title>
<path fill="none" stroke="black" d="M124.542,-362.731C135.4,-352.708 149.782,-339.432 161.903,-328.243"/>
<polygon fill="black" stroke="black" points="164.508,-330.602 169.482,-321.247 159.76,-325.458 164.508,-330.602"/>
</g>
<!-- 11&#45;&gt;12 -->
<g id="edge40" class="edge"><title>11&#45;&gt;12</title>
<path fill="none" stroke="black" d="M169.458,-362.731C158.6,-352.708 144.218,-339.432 132.097,-328.243"/>
<polygon fill="black" stroke="black" points="134.24,-325.458 124.518,-321.247 129.492,-330.602 134.24,-325.458"/>
</g>
<!-- 11&#45;&gt;13 -->
<g id="edge42" class="edge"><title>11&#45;&gt;13</title>
<path fill="none" stroke="black" d="M186,-359.831C186,-352.131 186,-342.974 186,-334.417"/>
<polygon fill="black" stroke="black" points="189.5,-334.413 186,-324.413 182.5,-334.413 189.5,-334.413"/>
</g>
<!-- 9 -->
<g id="node14" class="node"><title>9</title>
<ellipse fill="none" stroke="black" cx="30" cy="-234" rx="30.0736" ry="18"/>
<text text-anchor="middle" x="30" y="-229.9" font-family="Times Roman,serif" font-size="14.00">144</text>
</g>
<!-- 8&#45;&gt;9 -->
<g id="edge32" class="edge"><title>8&#45;&gt;9</title>
<path fill="none" stroke="black" d="M30,-287.831C30,-280.131 30,-270.974 30,-262.417"/>
<polygon fill="black" stroke="black" points="33.5001,-262.413 30,-252.413 26.5001,-262.413 33.5001,-262.413"/>
</g>
<!-- 14 -->
<g id="node15" class="node"><title>14</title>
<ellipse fill="none" stroke="black" cx="108" cy="-234" rx="30.0736" ry="18"/>
<text text-anchor="middle" x="108" y="-229.9" font-family="Times Roman,serif" font-size="14.00">234</text>
</g>
<!-- 8&#45;&gt;14 -->
<g id="edge34" class="edge"><title>8&#45;&gt;14</title>
<path fill="none" stroke="black" d="M46.5418,-290.731C57.4002,-280.708 71.7819,-267.432 83.903,-256.243"/>
<polygon fill="black" stroke="black" points="86.508,-258.602 91.4821,-249.247 81.76,-253.458 86.508,-258.602"/>
</g>
<!-- 12&#45;&gt;14 -->
<g id="edge44" class="edge"><title>12&#45;&gt;14</title>
<path fill="none" stroke="black" d="M108,-287.831C108,-280.131 108,-270.974 108,-262.417"/>
<polygon fill="black" stroke="black" points="111.5,-262.413 108,-252.413 104.5,-262.413 111.5,-262.413"/>
</g>
<!-- 13&#45;&gt;14 -->
<g id="edge46" class="edge"><title>13&#45;&gt;14</title>
<path fill="none" stroke="black" d="M169.458,-290.731C158.6,-280.708 144.218,-267.432 132.097,-256.243"/>
<polygon fill="black" stroke="black" points="134.24,-253.458 124.518,-249.247 129.492,-258.602 134.24,-253.458"/>
</g>
<!-- 16 -->
<g id="node17" class="node"><title>16</title>
<ellipse fill="none" stroke="black" cx="186" cy="-234" rx="30.0736" ry="18"/>
<text text-anchor="middle" x="186" y="-229.9" font-family="Times Roman,serif" font-size="14.00">333</text>
</g>
<!-- 13&#45;&gt;16 -->
<g id="edge48" class="edge"><title>13&#45;&gt;16</title>
<path fill="none" stroke="black" d="M186,-287.831C186,-280.131 186,-270.974 186,-262.417"/>
<polygon fill="black" stroke="black" points="189.5,-262.413 186,-252.413 182.5,-262.413 189.5,-262.413"/>
</g>
<!-- 15 -->
<g id="node16" class="node"><title>15</title>
<ellipse fill="none" stroke="black" cx="69" cy="-162" rx="30.0736" ry="18"/>
<text text-anchor="middle" x="69" y="-157.9" font-family="Times Roman,serif" font-size="14.00">244</text>
</g>
<!-- 9&#45;&gt;15 -->
<g id="edge36" class="edge"><title>9&#45;&gt;15</title>
<path fill="none" stroke="black" d="M39.4408,-216.571C44.0396,-208.081 49.6664,-197.693 54.7718,-188.267"/>
<polygon fill="black" stroke="black" points="57.9608,-189.729 59.6461,-179.269 51.8057,-186.395 57.9608,-189.729"/>
</g>
<!-- 14&#45;&gt;15 -->
<g id="edge50" class="edge"><title>14&#45;&gt;15</title>
<path fill="none" stroke="black" d="M98.5592,-216.571C93.9604,-208.081 88.3336,-197.693 83.2282,-188.267"/>
<polygon fill="black" stroke="black" points="86.1943,-186.395 78.3539,-179.269 80.0392,-189.729 86.1943,-186.395"/>
</g>
<!-- 17 -->
<g id="node18" class="node"><title>17</title>
<ellipse fill="none" stroke="black" cx="147" cy="-162" rx="30.0736" ry="18"/>
<text text-anchor="middle" x="147" y="-157.9" font-family="Times Roman,serif" font-size="14.00">334</text>
</g>
<!-- 14&#45;&gt;17 -->
<g id="edge52" class="edge"><title>14&#45;&gt;17</title>
<path fill="none" stroke="black" d="M117.441,-216.571C122.04,-208.081 127.666,-197.693 132.772,-188.267"/>
<polygon fill="black" stroke="black" points="135.961,-189.729 137.646,-179.269 129.806,-186.395 135.961,-189.729"/>
</g>
<!-- 18 -->
<g id="node19" class="node"><title>18</title>
<ellipse fill="none" stroke="black" cx="108" cy="-90" rx="30.0736" ry="18"/>
<text text-anchor="middle" x="108" y="-85.9" font-family="Times Roman,serif" font-size="14.00">344</text>
</g>
<!-- 15&#45;&gt;18 -->
<g id="edge54" class="edge"><title>15&#45;&gt;18</title>
<path fill="none" stroke="black" d="M78.4408,-144.571C83.0396,-136.081 88.6664,-125.693 93.7718,-116.267"/>
<polygon fill="black" stroke="black" points="96.9608,-117.729 98.6461,-107.269 90.8057,-114.395 96.9608,-117.729"/>
</g>
<!-- 16&#45;&gt;17 -->
<g id="edge56" class="edge"><title>16&#45;&gt;17</title>
<path fill="none" stroke="black" d="M176.559,-216.571C171.96,-208.081 166.334,-197.693 161.228,-188.267"/>
<polygon fill="black" stroke="black" points="164.194,-186.395 156.354,-179.269 158.039,-189.729 164.194,-186.395"/>
</g>
<!-- 17&#45;&gt;18 -->
<g id="edge58" class="edge"><title>17&#45;&gt;18</title>
<path fill="none" stroke="black" d="M137.559,-144.571C132.96,-136.081 127.334,-125.693 122.228,-116.267"/>
<polygon fill="black" stroke="black" points="125.194,-114.395 117.354,-107.269 119.039,-117.729 125.194,-114.395"/>
</g>
<!-- 19 -->
<g id="node20" class="node"><title>19</title>
<ellipse fill="none" stroke="black" cx="108" cy="-18" rx="30.0736" ry="18"/>
<text text-anchor="middle" x="108" y="-13.9" font-family="Times Roman,serif" font-size="14.00">444</text>
</g>
<!-- 18&#45;&gt;19 -->
<g id="edge60" class="edge"><title>18&#45;&gt;19</title>
<path fill="none" stroke="black" d="M108,-71.8314C108,-64.131 108,-54.9743 108,-46.4166"/>
<polygon fill="black" stroke="black" points="111.5,-46.4132 108,-36.4133 104.5,-46.4133 111.5,-46.4132"/>
</g>
</g>
</svg>
