<?xml version="1.0" encoding="UTF-8" standalone="no"?>
<!DOCTYPE svg PUBLIC "-//W3C//DTD SVG 1.1//EN"
 "http://www.w3.org/Graphics/SVG/1.1/DTD/svg11.dtd">
<!-- Generated by graphviz version 2.26.3 (20100126.1600)
 -->
<!-- Title: G Pages: 1 -->
<svg width="134pt" height="332pt"
 viewBox="0.00 0.00 134.00 332.00" xmlns="http://www.w3.org/2000/svg" xmlns:xlink="http://www.w3.org/1999/xlink">
<g id="graph1" class="graph" transform="scale(1 1) rotate(0) translate(4 328)">
<title>G</title>
<polygon fill="white" stroke="white" points="-4,5 -4,-328 131,-328 131,5 -4,5"/>
<!-- 0 -->
<g id="node1" class="node"><title>0</title>
<ellipse fill="none" stroke="black" cx="63" cy="-306" rx="27" ry="18"/>
<text text-anchor="middle" x="63" y="-301.9" font-family="Times Roman,serif" font-size="14.00">11</text>
</g>
<!-- 1 -->
<g id="node2" class="node"><title>1</title>
<ellipse fill="none" stroke="black" cx="63" cy="-234" rx="27" ry="18"/>
<text text-anchor="middle" x="63" y="-229.9" font-family="Times Roman,serif" font-size="14.00">12</text>
</g>
<!-- 0&#45;&gt;1 -->
<g id="edge2" class="edge"><title>0&#45;&gt;1</title>
<path fill="none" stroke="black" d="M63,-287.831C63,-280.131 63,-270.974 63,-262.417"/>
<polygon fill="black" stroke="black" points="66.5001,-262.413 63,-252.413 59.5001,-262.413 66.5001,-262.413"/>
</g>
<!-- 2 -->
<g id="node3" class="node"><title>2</title>
<ellipse fill="none" stroke="black" cx="27" cy="-162" rx="27" ry="18"/>
<text text-anchor="middle" x="27" y="-157.9" font-family="Times Roman,serif" font-size="14.00">13</text>
</g>
<!-- 1&#45;&gt;2 -->
<g id="edge4" class="edge"><title>1&#45;&gt;2</title>
<path fill="none" stroke="black" d="M54.2854,-216.571C50.0403,-208.081 44.8464,-197.693 40.1337,-188.267"/>
<polygon fill="black" stroke="black" points="43.237,-186.648 35.6343,-179.269 36.976,-189.778 43.237,-186.648"/>
</g>
<!-- 3 -->
<g id="node4" class="node"><title>3</title>
<ellipse fill="none" stroke="black" cx="99" cy="-162" rx="27" ry="18"/>
<text text-anchor="middle" x="99" y="-157.9" font-family="Times Roman,serif" font-size="14.00">22</text>
</g>
<!-- 1&#45;&gt;3 -->
<g id="edge6" class="edge"><title>1&#45;&gt;3</title>
<path fill="none" stroke="black" d="M71.7146,-216.571C75.9597,-208.081 81.1536,-197.693 85.8663,-188.267"/>
<polygon fill="black" stroke="black" points="89.024,-189.778 90.3657,-179.269 82.763,-186.648 89.024,-189.778"/>
</g>
<!-- 4 -->
<g id="node5" class="node"><title>4</title>
<ellipse fill="none" stroke="black" cx="63" cy="-90" rx="27" ry="18"/>
<text text-anchor="middle" x="63" y="-85.9" font-family="Times Roman,serif" font-size="14.00">23</text>
</g>
<!-- 2&#45;&gt;4 -->
<g id="edge8" class="edge"><title>2&#45;&gt;4</title>
<path fill="none" stroke="black" d="M35.7146,-144.571C39.9597,-136.081 45.1536,-125.693 49.8663,-116.267"/>
<polygon fill="black" stroke="black" points="53.024,-117.778 54.3657,-107.269 46.763,-114.648 53.024,-117.778"/>
</g>
<!-- 3&#45;&gt;4 -->
<g id="edge10" class="edge"><title>3&#45;&gt;4</title>
<path fill="none" stroke="black" d="M90.2854,-144.571C86.0403,-136.081 80.8464,-125.693 76.1337,-116.267"/>
<polygon fill="black" stroke="black" points="79.237,-114.648 71.6343,-107.269 72.976,-117.778 79.237,-114.648"/>
</g>
<!-- 5 -->
<g id="node6" class="node"><title>5</title>
<ellipse fill="none" stroke="black" cx="63" cy="-18" rx="27" ry="18"/>
<text text-anchor="middle" x="63" y="-13.9" font-family="Times Roman,serif" font-size="14.00">33</text>
</g>
<!-- 4&#45;&gt;5 -->
<g id="edge12" class="edge"><title>4&#45;&gt;5</title>
<path fill="none" stroke="black" d="M63,-71.8314C63,-64.131 63,-54.9743 63,-46.4166"/>
<polygon fill="black" stroke="black" points="66.5001,-46.4132 63,-36.4133 59.5001,-46.4133 66.5001,-46.4132"/>
</g>
</g>
</svg>
