<?xml version="1.0" encoding="UTF-8" standalone="no"?>
<!DOCTYPE svg PUBLIC "-//W3C//DTD SVG 1.1//EN"
 "http://www.w3.org/Graphics/SVG/1.1/DTD/svg11.dtd">
<!-- Generated by graphviz version 2.26.3 (20100126.1600)
 -->
<!-- Title: G Pages: 1 -->
<svg width="266pt" height="620pt"
 viewBox="0.00 0.00 266.00 620.00" xmlns="http://www.w3.org/2000/svg" xmlns:xlink="http://www.w3.org/1999/xlink">
<g id="graph1" class="graph" transform="scale(1 1) rotate(0) translate(4 616)">
<title>G</title>
<polygon fill="white" stroke="white" points="-4,5 -4,-616 263,-616 263,5 -4,5"/>
<!-- 0 -->
<g id="node1" class="node"><title>0</title>
<ellipse fill="none" stroke="black" cx="129" cy="-594" rx="36.8288" ry="18"/>
<text text-anchor="middle" x="129" y="-589.9" font-family="Times Roman,serif" font-size="14.00">1111</text>
</g>
<!-- 1 -->
<g id="node2" class="node"><title>1</title>
<ellipse fill="none" stroke="black" cx="129" cy="-522" rx="36.8288" ry="18"/>
<text text-anchor="middle" x="129" y="-517.9" font-family="Times Roman,serif" font-size="14.00">1112</text>
</g>
<!-- 0&#45;&gt;1 -->
<g id="edge2" class="edge"><title>0&#45;&gt;1</title>
<path fill="none" stroke="black" d="M129,-575.831C129,-568.131 129,-558.974 129,-550.417"/>
<polygon fill="black" stroke="black" points="132.5,-550.413 129,-540.413 125.5,-550.413 132.5,-550.413"/>
</g>
<!-- 2 -->
<g id="node3" class="node"><title>2</title>
<ellipse fill="none" stroke="black" cx="83" cy="-450" rx="36.8288" ry="18"/>
<text text-anchor="middle" x="83" y="-445.9" font-family="Times Roman,serif" font-size="14.00">1113</text>
</g>
<!-- 1&#45;&gt;2 -->
<g id="edge4" class="edge"><title>1&#45;&gt;2</title>
<path fill="none" stroke="black" d="M117.865,-504.571C112.384,-495.992 105.665,-485.476 99.594,-475.973"/>
<polygon fill="black" stroke="black" points="102.366,-473.811 94.0328,-467.269 96.4673,-477.58 102.366,-473.811"/>
</g>
<!-- 3 -->
<g id="node4" class="node"><title>3</title>
<ellipse fill="none" stroke="black" cx="175" cy="-450" rx="36.8288" ry="18"/>
<text text-anchor="middle" x="175" y="-445.9" font-family="Times Roman,serif" font-size="14.00">1122</text>
</g>
<!-- 1&#45;&gt;3 -->
<g id="edge6" class="edge"><title>1&#45;&gt;3</title>
<path fill="none" stroke="black" d="M140.135,-504.571C145.616,-495.992 152.335,-485.476 158.406,-475.973"/>
<polygon fill="black" stroke="black" points="161.533,-477.58 163.967,-467.269 155.634,-473.811 161.533,-477.58"/>
</g>
<!-- 4 -->
<g id="node5" class="node"><title>4</title>
<ellipse fill="none" stroke="black" cx="83" cy="-378" rx="36.8288" ry="18"/>
<text text-anchor="middle" x="83" y="-373.9" font-family="Times Roman,serif" font-size="14.00">1123</text>
</g>
<!-- 2&#45;&gt;4 -->
<g id="edge8" class="edge"><title>2&#45;&gt;4</title>
<path fill="none" stroke="black" d="M83,-431.831C83,-424.131 83,-414.974 83,-406.417"/>
<polygon fill="black" stroke="black" points="86.5001,-406.413 83,-396.413 79.5001,-406.413 86.5001,-406.413"/>
</g>
<!-- 3&#45;&gt;4 -->
<g id="edge10" class="edge"><title>3&#45;&gt;4</title>
<path fill="none" stroke="black" d="M155.037,-434.377C142.049,-424.212 124.932,-410.816 110.642,-399.633"/>
<polygon fill="black" stroke="black" points="112.64,-396.752 102.608,-393.345 108.326,-402.264 112.64,-396.752"/>
</g>
<!-- 6 -->
<g id="node6" class="node"><title>6</title>
<ellipse fill="none" stroke="black" cx="175" cy="-378" rx="36.8288" ry="18"/>
<text text-anchor="middle" x="175" y="-373.9" font-family="Times Roman,serif" font-size="14.00">1222</text>
</g>
<!-- 3&#45;&gt;6 -->
<g id="edge12" class="edge"><title>3&#45;&gt;6</title>
<path fill="none" stroke="black" d="M175,-431.831C175,-424.131 175,-414.974 175,-406.417"/>
<polygon fill="black" stroke="black" points="178.5,-406.413 175,-396.413 171.5,-406.413 178.5,-406.413"/>
</g>
<!-- 5 -->
<g id="node7" class="node"><title>5</title>
<ellipse fill="none" stroke="black" cx="37" cy="-306" rx="36.8288" ry="18"/>
<text text-anchor="middle" x="37" y="-301.9" font-family="Times Roman,serif" font-size="14.00">1133</text>
</g>
<!-- 4&#45;&gt;5 -->
<g id="edge14" class="edge"><title>4&#45;&gt;5</title>
<path fill="none" stroke="black" d="M71.8647,-360.571C66.3839,-351.992 59.6654,-341.476 53.594,-331.973"/>
<polygon fill="black" stroke="black" points="56.3662,-329.811 48.0328,-323.269 50.4673,-333.58 56.3662,-329.811"/>
</g>
<!-- 7 -->
<g id="node8" class="node"><title>7</title>
<ellipse fill="none" stroke="black" cx="129" cy="-306" rx="36.8288" ry="18"/>
<text text-anchor="middle" x="129" y="-301.9" font-family="Times Roman,serif" font-size="14.00">1223</text>
</g>
<!-- 4&#45;&gt;7 -->
<g id="edge16" class="edge"><title>4&#45;&gt;7</title>
<path fill="none" stroke="black" d="M94.1353,-360.571C99.6161,-351.992 106.335,-341.476 112.406,-331.973"/>
<polygon fill="black" stroke="black" points="115.533,-333.58 117.967,-323.269 109.634,-329.811 115.533,-333.58"/>
</g>
<!-- 6&#45;&gt;7 -->
<g id="edge20" class="edge"><title>6&#45;&gt;7</title>
<path fill="none" stroke="black" d="M163.865,-360.571C158.384,-351.992 151.665,-341.476 145.594,-331.973"/>
<polygon fill="black" stroke="black" points="148.366,-329.811 140.033,-323.269 142.467,-333.58 148.366,-329.811"/>
</g>
<!-- 10 -->
<g id="node10" class="node"><title>10</title>
<ellipse fill="none" stroke="black" cx="221" cy="-306" rx="36.8288" ry="18"/>
<text text-anchor="middle" x="221" y="-301.9" font-family="Times Roman,serif" font-size="14.00">2222</text>
</g>
<!-- 6&#45;&gt;10 -->
<g id="edge22" class="edge"><title>6&#45;&gt;10</title>
<path fill="none" stroke="black" d="M186.135,-360.571C191.616,-351.992 198.335,-341.476 204.406,-331.973"/>
<polygon fill="black" stroke="black" points="207.533,-333.58 209.967,-323.269 201.634,-329.811 207.533,-333.58"/>
</g>
<!-- 8 -->
<g id="node9" class="node"><title>8</title>
<ellipse fill="none" stroke="black" cx="83" cy="-234" rx="36.8288" ry="18"/>
<text text-anchor="middle" x="83" y="-229.9" font-family="Times Roman,serif" font-size="14.00">1233</text>
</g>
<!-- 5&#45;&gt;8 -->
<g id="edge18" class="edge"><title>5&#45;&gt;8</title>
<path fill="none" stroke="black" d="M48.1353,-288.571C53.6161,-279.992 60.3346,-269.476 66.406,-259.973"/>
<polygon fill="black" stroke="black" points="69.5327,-261.58 71.9672,-251.269 63.6338,-257.811 69.5327,-261.58"/>
</g>
<!-- 7&#45;&gt;8 -->
<g id="edge24" class="edge"><title>7&#45;&gt;8</title>
<path fill="none" stroke="black" d="M117.865,-288.571C112.384,-279.992 105.665,-269.476 99.594,-259.973"/>
<polygon fill="black" stroke="black" points="102.366,-257.811 94.0328,-251.269 96.4673,-261.58 102.366,-257.811"/>
</g>
<!-- 11 -->
<g id="node11" class="node"><title>11</title>
<ellipse fill="none" stroke="black" cx="175" cy="-234" rx="36.8288" ry="18"/>
<text text-anchor="middle" x="175" y="-229.9" font-family="Times Roman,serif" font-size="14.00">2223</text>
</g>
<!-- 7&#45;&gt;11 -->
<g id="edge26" class="edge"><title>7&#45;&gt;11</title>
<path fill="none" stroke="black" d="M140.135,-288.571C145.616,-279.992 152.335,-269.476 158.406,-259.973"/>
<polygon fill="black" stroke="black" points="161.533,-261.58 163.967,-251.269 155.634,-257.811 161.533,-261.58"/>
</g>
<!-- 9 -->
<g id="node12" class="node"><title>9</title>
<ellipse fill="none" stroke="black" cx="83" cy="-162" rx="36.8288" ry="18"/>
<text text-anchor="middle" x="83" y="-157.9" font-family="Times Roman,serif" font-size="14.00">1333</text>
</g>
<!-- 8&#45;&gt;9 -->
<g id="edge28" class="edge"><title>8&#45;&gt;9</title>
<path fill="none" stroke="black" d="M83,-215.831C83,-208.131 83,-198.974 83,-190.417"/>
<polygon fill="black" stroke="black" points="86.5001,-190.413 83,-180.413 79.5001,-190.413 86.5001,-190.413"/>
</g>
<!-- 12 -->
<g id="node13" class="node"><title>12</title>
<ellipse fill="none" stroke="black" cx="175" cy="-162" rx="36.8288" ry="18"/>
<text text-anchor="middle" x="175" y="-157.9" font-family="Times Roman,serif" font-size="14.00">2233</text>
</g>
<!-- 8&#45;&gt;12 -->
<g id="edge30" class="edge"><title>8&#45;&gt;12</title>
<path fill="none" stroke="black" d="M102.963,-218.377C115.951,-208.212 133.068,-194.816 147.358,-183.633"/>
<polygon fill="black" stroke="black" points="149.674,-186.264 155.392,-177.345 145.36,-180.752 149.674,-186.264"/>
</g>
<!-- 10&#45;&gt;11 -->
<g id="edge34" class="edge"><title>10&#45;&gt;11</title>
<path fill="none" stroke="black" d="M209.865,-288.571C204.384,-279.992 197.665,-269.476 191.594,-259.973"/>
<polygon fill="black" stroke="black" points="194.366,-257.811 186.033,-251.269 188.467,-261.58 194.366,-257.811"/>
</g>
<!-- 11&#45;&gt;12 -->
<g id="edge36" class="edge"><title>11&#45;&gt;12</title>
<path fill="none" stroke="black" d="M175,-215.831C175,-208.131 175,-198.974 175,-190.417"/>
<polygon fill="black" stroke="black" points="178.5,-190.413 175,-180.413 171.5,-190.413 178.5,-190.413"/>
</g>
<!-- 13 -->
<g id="node14" class="node"><title>13</title>
<ellipse fill="none" stroke="black" cx="129" cy="-90" rx="36.8288" ry="18"/>
<text text-anchor="middle" x="129" y="-85.9" font-family="Times Roman,serif" font-size="14.00">2333</text>
</g>
<!-- 9&#45;&gt;13 -->
<g id="edge32" class="edge"><title>9&#45;&gt;13</title>
<path fill="none" stroke="black" d="M94.1353,-144.571C99.6161,-135.992 106.335,-125.476 112.406,-115.973"/>
<polygon fill="black" stroke="black" points="115.533,-117.58 117.967,-107.269 109.634,-113.811 115.533,-117.58"/>
</g>
<!-- 12&#45;&gt;13 -->
<g id="edge38" class="edge"><title>12&#45;&gt;13</title>
<path fill="none" stroke="black" d="M163.865,-144.571C158.384,-135.992 151.665,-125.476 145.594,-115.973"/>
<polygon fill="black" stroke="black" points="148.366,-113.811 140.033,-107.269 142.467,-117.58 148.366,-113.811"/>
</g>
<!-- 14 -->
<g id="node15" class="node"><title>14</title>
<ellipse fill="none" stroke="black" cx="129" cy="-18" rx="36.8288" ry="18"/>
<text text-anchor="middle" x="129" y="-13.9" font-family="Times Roman,serif" font-size="14.00">3333</text>
</g>
<!-- 13&#45;&gt;14 -->
<g id="edge40" class="edge"><title>13&#45;&gt;14</title>
<path fill="none" stroke="black" d="M129,-71.8314C129,-64.131 129,-54.9743 129,-46.4166"/>
<polygon fill="black" stroke="black" points="132.5,-46.4132 129,-36.4133 125.5,-46.4133 132.5,-46.4132"/>
</g>
</g>
</svg>
